<?xml version="1.0" standalone="no"?>
<!DOCTYPE svg PUBLIC "-//W3C//DTD SVG 20010904//EN"
 "http://www.w3.org/TR/2001/REC-SVG-20010904/DTD/svg10.dtd">
<svg version="1.0" xmlns="http://www.w3.org/2000/svg"
 width="2682.000000pt" height="246.000000pt" viewBox="0 0 2682.000000 246.000000"
 preserveAspectRatio="xMidYMid meet">

<g transform="translate(0.000000,246.000000) scale(0.100000,-0.100000)"
fill="#000000" stroke="none">
<path d="M131 2423 c-21 -81 -131 -523 -131 -528 0 -3 183 -5 406 -5 l406 0
-5 -22 c-19 -75 -397 -1842 -397 -1854 0 -12 47 -14 294 -14 l293 0 19 88 c10
48 99 472 199 942 l181 855 395 3 395 2 67 278 c37 152 67 280 67 285 0 4
-490 7 -1090 7 l-1089 0 -10 -37z"/>
<path d="M2821 2445 c-153 -34 -275 -134 -350 -285 -39 -79 -61 -167 -287
-1120 -134 -569 -244 -1035 -244 -1037 0 -2 139 -3 310 -3 l310 0 5 22 c3 13
23 102 44 198 22 96 60 263 85 370 25 107 46 196 46 197 0 2 85 3 189 3 l189
0 239 -395 238 -394 333 -1 c314 0 332 1 323 18 -5 9 -111 186 -235 392 l-227
375 158 6 c127 4 171 10 226 28 133 45 249 146 308 269 22 45 53 162 110 415
86 385 95 468 63 578 -46 156 -167 284 -330 347 l-69 27 -685 2 c-560 2 -697
-1 -749 -12z m1203 -576 c14 -11 26 -30 26 -41 0 -12 -21 -109 -46 -217 -32
-136 -53 -203 -67 -218 l-20 -23 -519 0 c-285 0 -518 2 -518 4 0 12 92 425
101 453 21 65 4 63 535 63 472 0 482 0 508 -21z"/>
<path d="M5283 2445 c-149 -32 -270 -136 -347 -298 -40 -83 -67 -187 -290
-1102 -136 -556 -249 -1018 -252 -1027 -5 -17 13 -18 290 -18 272 0 295 1 300
18 8 28 156 639 156 646 0 3 197 7 437 8 l438 3 67 275 c37 151 68 278 68 283
0 4 -196 7 -435 7 l-435 0 7 28 c3 15 37 151 74 302 59 242 70 277 93 297 l27
23 495 0 c467 0 495 -1 490 -17 -7 -22 -456 -1863 -456 -1869 0 -2 133 -3 297
-2 l296 3 293 1210 c161 666 295 1218 298 1228 4 16 -45 17 -922 16 -740 0
-940 -3 -989 -14z"/>
<path d="M7324 2383 c4 -43 31 -496 61 -1008 38 -629 60 -949 70 -989 35 -138
133 -261 260 -328 99 -51 157 -59 399 -56 l209 3 588 1215 c324 668 588 1221
589 1228 0 10 -64 12 -302 10 l-302 -3 -435 -899 c-316 -653 -437 -893 -442
-880 -4 11 -28 406 -54 879 -25 473 -48 870 -51 883 l-4 22 -296 0 -296 0 6
-77z"/>
<path d="M9895 2449 c-174 -29 -310 -142 -391 -326 -14 -32 -100 -375 -196
-787 -159 -681 -171 -738 -171 -826 1 -106 21 -179 73 -260 42 -66 146 -163
208 -194 110 -56 111 -56 945 -56 422 0 767 3 767 6 0 7 118 521 126 547 5 16
-34 17 -724 17 l-729 0 -23 25 -24 25 29 127 c15 70 32 142 37 160 l9 33 499
0 c275 0 500 2 500 5 0 3 27 127 60 275 33 148 60 274 60 280 0 6 -175 11
-493 12 l-494 3 38 164 c27 118 44 170 59 185 20 21 25 21 764 24 l743 2 58
253 c32 138 61 267 65 285 l8 32 -877 -1 c-482 -1 -898 -5 -926 -10z"/>
<path d="M12260 2444 c-172 -37 -322 -161 -381 -316 -31 -79 -362 -1508 -367
-1583 -9 -144 45 -281 154 -390 71 -71 169 -125 262 -144 36 -7 304 -11 827
-11 426 0 775 1 775 3 0 1 29 128 65 281 36 153 65 280 65 282 0 2 -330 4
-734 4 -689 0 -735 1 -756 18 -12 10 -22 29 -23 42 0 14 22 124 51 245 136
580 362 1560 362 1572 0 18 -212 16 -300 -3z"/>
<path d="M14682 2452 c1 -4 93 -188 204 -407 110 -220 243 -492 296 -604 l97
-205 -168 -175 c-92 -97 -356 -374 -585 -616 l-418 -440 396 -3 396 -2 128
132 c71 73 213 223 316 333 103 110 190 201 195 203 4 1 19 -23 33 -55 14 -32
85 -183 158 -335 l133 -278 399 0 c377 0 398 1 390 18 -21 38 -582 1201 -584
1210 -3 10 495 541 837 892 115 118 236 243 269 278 l60 62 -396 0 -397 0
-316 -332 c-174 -183 -319 -334 -324 -336 -4 -1 -80 147 -169 330 l-162 333
-396 3 c-218 1 -394 -1 -392 -6z"/>
<path d="M17590 2449 c-69 -12 -170 -59 -227 -105 -24 -19 -63 -64 -88 -98
-87 -122 -59 -21 -439 -1601 -63 -264 -122 -510 -131 -547 -8 -37 -18 -74 -21
-82 -6 -14 27 -16 310 -16 l316 0 5 22 c31 130 175 755 175 760 0 5 304 8 675
8 450 0 692 4 727 11 150 31 294 143 362 280 53 108 196 737 196 862 0 245
-169 450 -415 502 -58 12 -184 14 -730 14 -363 -1 -685 -5 -715 -10z m1204
-580 c16 -13 26 -30 26 -47 1 -50 -94 -413 -113 -433 -17 -18 -37 -19 -547
-19 -419 0 -528 3 -525 13 2 6 27 113 55 237 28 123 56 231 63 238 6 8 20 18
32 22 11 5 237 9 501 9 472 1 482 1 508 -20z"/>
<path d="M20135 2453 c-42 -6 -123 -32 -170 -56 -91 -45 -196 -173 -245 -296
-11 -30 -96 -374 -187 -765 -173 -742 -187 -820 -164 -926 41 -189 214 -360
405 -400 34 -7 307 -9 815 -8 l765 3 63 270 c34 149 62 276 63 283 0 9 -151
12 -723 12 -801 0 -767 -3 -767 63 0 18 14 94 32 169 l32 138 500 2 499 3 58
255 c31 140 60 267 63 283 l6 27 -495 0 c-272 0 -495 3 -495 6 0 4 16 77 36
163 31 136 39 159 65 184 l29 27 735 0 734 0 10 38 c13 50 121 519 121 526 0
7 -1737 5 -1785 -1z"/>
<path d="M22480 2449 c-163 -27 -317 -164 -389 -346 -15 -39 -462 -1900 -498
-2075 l-5 -28 309 0 309 0 83 360 c45 198 87 376 92 395 l10 35 188 0 187 0
239 -395 238 -395 333 0 334 0 -235 390 c-129 214 -235 392 -235 394 0 2 71 6
158 8 190 6 254 24 360 98 78 55 137 126 177 211 32 72 174 698 182 804 7 100
-8 174 -54 265 -45 91 -140 188 -225 229 -121 60 -138 61 -853 60 -357 -1
-675 -5 -705 -10z m1195 -584 c14 -13 25 -30 25 -37 0 -7 -22 -105 -49 -218
-39 -161 -54 -208 -71 -222 -21 -17 -60 -18 -536 -18 -343 0 -514 3 -514 10 0
6 22 113 50 238 43 199 53 230 75 250 l26 22 485 0 485 0 24 -25z"/>
<path d="M24567 2182 c-37 -152 -67 -280 -67 -284 0 -4 181 -9 403 -10 l404
-3 -203 -940 c-112 -517 -203 -941 -204 -943 0 -1 134 -1 297 0 l298 3 152
720 c84 396 173 820 199 942 l47 223 395 2 395 3 68 275 c37 151 68 278 69
283 0 4 -492 7 -1092 7 l-1093 0 -68 -278z"/>
</g>
</svg>
